<svg width="14" height="14" viewBox="0 0 14 14" fill="none" xmlns="http://www.w3.org/2000/svg">
<path d="M9.00175 3.66632L4.66842 7.99965C4.40321 8.26487 4.25421 8.62458 4.25421 8.99965C4.25421 9.37472 4.40321 9.73443 4.66842 9.99965C4.93364 10.2649 5.29335 10.4139 5.66842 10.4139C6.04349 10.4139 6.40321 10.2649 6.66842 9.99965L11.0018 5.66632C11.5322 5.13588 11.8302 4.41646 11.8302 3.66632C11.8302 2.91617 11.5322 2.19675 11.0018 1.66632C10.4713 1.13588 9.7519 0.837891 9.00175 0.837891C8.25161 0.837891 7.53219 1.13588 7.00176 1.66632L2.66842 5.99965C1.87277 6.7953 1.42578 7.87443 1.42578 8.99965C1.42578 10.1249 1.87277 11.204 2.66842 11.9997C3.46407 12.7953 4.5432 13.2423 5.66842 13.2423C6.79364 13.2423 7.87277 12.7953 8.66842 11.9997L13.0018 7.66632" stroke="#BE3D3D" stroke-width="1.33333" stroke-linecap="round" stroke-linejoin="round"/>
</svg>
