<svg width="159" height="23" viewBox="0 0 159 23" fill="none" xmlns="http://www.w3.org/2000/svg">
<path fill-rule="evenodd" clip-rule="evenodd" d="M0 0.512431H17.8649L17.2956 6.11434L10.6916 5.23187V9.37418H16.9673L16.5706 13.3012H10.6878V22.4788H0V0.512431ZM48.1425 13.3153H52.2719L50.7139 8.41935L61.2328 9.4589L65.8651 21.5928L67.5313 10.0802L97.3516 13.0276L98.68 21.7888L101.756 13.4635L127.496 16.0086L129.595 21.5275L133.066 16.5592L143.124 17.5529L140.748 22.4947H119.114L117.943 18.8113H110.286L109.091 22.4947H88.7247L87.364 14.3637L84.8857 22.4859H79.6518L77.1734 14.3548L75.8128 22.4859H55.1849L54.014 18.8025H46.3644L45.1651 22.4859H20.1326V5.39601L31.0747 6.47792V16.1374H36.9481L40.2311 7.38157L49.7708 8.32405L48.1501 13.3153H48.1425ZM50.3856 7.3798L50.2281 6.88915L50.0782 7.3551L40.5423 6.5291L41.1477 4.91242L59.9671 6.12317L60.785 8.27816L50.3856 7.37627V7.3798ZM41.4323 4.15173L41.9618 2.73978L58.874 3.28162L59.5648 5.08892L41.4323 4.15703V4.15173ZM42.2559 1.95086L42.7948 0.512431H57.8189L58.4963 2.28619L42.2559 1.95086ZM20.1326 4.75887V3.56048L31.0747 4.26645V5.70841L20.1326 4.76064V4.75887ZM20.1326 3.05571V2.03557L31.0747 2.38856V3.62402L20.1326 3.061V3.05571ZM20.1326 1.49374V0.512431H31.0747V1.71965L20.1326 1.49374ZM67.7039 8.88177L68.0285 6.6403L81.7829 7.52276L82.3029 9.38654L82.7621 7.5863L96.6646 8.47936L97.1087 11.4286L67.6945 8.88L67.7039 8.88177ZM68.1898 5.52838L68.4706 3.58695L80.7942 3.9823L81.411 6.20965L68.1841 5.52838H68.1898ZM68.6281 2.49622L68.9147 0.512431H79.8245L80.447 2.73978L68.6281 2.49622ZM83.0904 6.29613L83.6597 4.07055L96.0631 4.46766L96.4426 6.98269L83.0942 6.29613H83.0904ZM83.9767 2.80685L84.563 0.512431H95.4539L95.8334 3.05747L83.9767 2.80685ZM102.333 11.8786L103.424 8.91707L113.292 9.55068L112.252 12.7435L102.333 11.8839V11.8786ZM103.994 7.37098L104.967 4.74828L123.441 5.33954L124.614 8.42641L114.476 7.90576L114.152 6.88386L113.831 7.87222L103.994 7.37098ZM105.512 3.25867L106.535 0.512431H121.602L122.781 3.61519L105.512 3.2622V3.25867ZM125.327 10.3184L126.724 13.9913L116.118 13.0788L115.032 9.66363L125.335 10.3255L125.327 10.3184ZM134.383 14.6549L136.899 11.0703L151.601 12.0145L154.717 16.4269L134.391 14.6619L134.383 14.6549ZM135.651 8.99296L132.943 5.63958L143.509 5.98374L144.063 7.06388L144.566 6.01904L154.066 6.32261L151.312 9.80659L135.658 9.00002L135.651 8.99296ZM131.444 3.78639L128.8 0.512431H140.695L142.5 4.02113L131.451 3.79345L131.444 3.78639ZM145.487 4.07761L147.194 0.505371H158.649L155.673 4.29469L145.496 4.08467L145.487 4.07761ZM156.444 18.8678L159 22.4859H147.451L144.851 17.7206L156.446 18.8643L156.444 18.8678Z" fill="#BE3D3D"/>
</svg>
